%
M48
M72
T01C0.0320
T02C0.0354
T03C0.0394
T04C0.0400
T05C0.0440
%
T01
X12652Y9750
X13652Y9750
X21452Y8400
X22452Y8400
X22452Y6850
X21452Y6850
X23452Y6850
X23852Y23000
X23352Y23750
X24352Y23750
X25702Y23750
X26202Y23000
X26702Y23750
X21902Y23750
X21402Y23000
X20902Y23750
T02
X25702Y28650
X27602Y25250
X29402Y16250
T03
X30452Y23150
X30452Y24150
T04
X12202Y6800
X13202Y6800
X14202Y6800
X15702Y6850
X16052Y10550
X17052Y10550
X18052Y10550
X20552Y9450
X22402Y9450
X20702Y6850
X19952Y4550
X19752Y2200
X18752Y2200
X17752Y2200
X16752Y2200
X15752Y2200
X14752Y2200
X13752Y2200
X20752Y2200
X22752Y2200
X23752Y2200
X24752Y2200
X25752Y2200
X26752Y2200
X27752Y2200
X24952Y4550
X24352Y5950
X29352Y5950
X31052Y5950
X31052Y4950
X31052Y3950
X31052Y2950
X31052Y1950
X31052Y6950
X31052Y7950
X31052Y8950
X31052Y9950
X31052Y10950
X31052Y11950
X31052Y12950
X31052Y13950
X31052Y14950
X31052Y15950
X31152Y18150
X30152Y18150
X30152Y19150
X31152Y19150
X31152Y20150
X30152Y20150
X30152Y21150
X31152Y21150
X27752Y21200
X26752Y21200
X25752Y21200
X24752Y21200
X23752Y21200
X22752Y21200
X21752Y21200
X20752Y21200
X19252Y21200
X18252Y21200
X17252Y21200
X16252Y21200
X15252Y21200
X14252Y21200
X13252Y21200
X12252Y21200
X11252Y21200
X10252Y21200
X10252Y23400
X12252Y23400
X14252Y23400
X14252Y26400
X14252Y27950
X12252Y27950
X12252Y26400
X10252Y26400
X10252Y27950
X10252Y30950
X12252Y30950
X14252Y30950
X17252Y30950
X17252Y27950
X17252Y26400
X17252Y23400
X21952Y27800
X21952Y30800
X24952Y30800
X26952Y30800
X28952Y30800
X31002Y30650
X31002Y29650
X31002Y28650
X28952Y27800
X26952Y27800
X24952Y27800
X21702Y17350
X20702Y17350
X19702Y17350
X18702Y17350
X17702Y17350
X16702Y17350
X15702Y17350
X14702Y17350
X13702Y17350
X12702Y17350
X11702Y17350
X10702Y17350
X10702Y16350
X11702Y16350
X12702Y16350
X13702Y16350
X14702Y16350
X15702Y16350
X16702Y16350
X17702Y16350
X18702Y16350
X19702Y16350
X20702Y16350
X21702Y16350
X22402Y14450
X20552Y14450
X27752Y13200
X27752Y12200
X27752Y11200
X28752Y11200
X28752Y12200
X28752Y13200
T05
X26202Y11950
X24152Y11950
X25152Y15250
X24152Y15950
X26202Y15950
X27552Y15950
X25152Y19250
X27552Y19950
X20452Y27250
X18752Y27250
X18752Y26500
X18752Y22500
X18752Y31250
X20452Y31250
X19152Y11950
X20252Y8400
X16252Y8400
X15152Y11950
M30
