G75*
%MOIN*%
%OFA0B0*%
%FSLAX24Y24*%
%IPPOS*%
%LPD*%
%AMOC8*
5,1,8,0,0,1.08239X$1,22.5*
%
%ADD10OC8,0.0600*%
%ADD11C,0.0600*%
%ADD12C,0.0660*%
%ADD13OC8,0.0520*%
%ADD14OC8,0.0630*%
%ADD15C,0.0630*%
%ADD16C,0.0520*%
%ADD17C,0.0594*%
%ADD18C,0.0740*%
%ADD19C,0.0320*%
%ADD20C,0.0160*%
%ADD21C,0.0531*%
%ADD22C,0.0240*%
D10*
X015702Y006850D03*
X019952Y004550D03*
X020702Y006850D03*
X020552Y009450D03*
X022402Y009450D03*
X024352Y005950D03*
X024952Y004550D03*
X029352Y005950D03*
X028752Y011200D03*
X027752Y011200D03*
X027752Y012200D03*
X027752Y013200D03*
X028752Y013200D03*
X028752Y012200D03*
X030152Y018150D03*
X030152Y019150D03*
X031152Y019150D03*
X031152Y018150D03*
X031152Y020150D03*
X030152Y020150D03*
X030152Y021150D03*
X031152Y021150D03*
X022402Y014450D03*
X020552Y014450D03*
X020702Y016350D03*
X019702Y016350D03*
X018702Y016350D03*
X017702Y016350D03*
X016702Y016350D03*
X015702Y016350D03*
X014702Y016350D03*
X013702Y016350D03*
X012702Y016350D03*
X011702Y016350D03*
X010702Y016350D03*
X010702Y017350D03*
X011702Y017350D03*
X012702Y017350D03*
X013702Y017350D03*
X014702Y017350D03*
X015702Y017350D03*
X016702Y017350D03*
X017702Y017350D03*
X018702Y017350D03*
X019702Y017350D03*
X020702Y017350D03*
X021702Y017350D03*
X021702Y016350D03*
D11*
X018052Y010850D02*
X018052Y010250D01*
X017052Y010250D02*
X017052Y010850D01*
X016052Y010850D02*
X016052Y010250D01*
X014202Y007100D02*
X014202Y006500D01*
X013202Y006500D02*
X013202Y007100D01*
X012202Y007100D02*
X012202Y006500D01*
X012252Y023100D02*
X012252Y023700D01*
X010252Y023700D02*
X010252Y023100D01*
X010252Y026100D02*
X010252Y026700D01*
X010252Y027650D02*
X010252Y028250D01*
X012252Y028250D02*
X012252Y027650D01*
X012252Y026700D02*
X012252Y026100D01*
X014252Y026100D02*
X014252Y026700D01*
X014252Y027650D02*
X014252Y028250D01*
X014252Y030650D02*
X014252Y031250D01*
X012252Y031250D02*
X012252Y030650D01*
X010252Y030650D02*
X010252Y031250D01*
X017252Y031250D02*
X017252Y030650D01*
X017252Y028250D02*
X017252Y027650D01*
X017252Y026700D02*
X017252Y026100D01*
X017252Y023700D02*
X017252Y023100D01*
X014252Y023100D02*
X014252Y023700D01*
X021952Y027500D02*
X021952Y028100D01*
X021952Y030500D02*
X021952Y031100D01*
X024952Y031100D02*
X024952Y030500D01*
X026952Y030500D02*
X026952Y031100D01*
X028952Y031100D02*
X028952Y030500D01*
X030702Y030650D02*
X031302Y030650D01*
X031302Y029650D02*
X030702Y029650D01*
X030702Y028650D02*
X031302Y028650D01*
X028952Y028100D02*
X028952Y027500D01*
X026952Y027500D02*
X026952Y028100D01*
X024952Y028100D02*
X024952Y027500D01*
X030752Y015950D02*
X031352Y015950D01*
X031352Y014950D02*
X030752Y014950D01*
X030752Y013950D02*
X031352Y013950D01*
X031352Y012950D02*
X030752Y012950D01*
X030752Y011950D02*
X031352Y011950D01*
X031352Y010950D02*
X030752Y010950D01*
X030752Y009950D02*
X031352Y009950D01*
X031352Y008950D02*
X030752Y008950D01*
X030752Y007950D02*
X031352Y007950D01*
X031352Y006950D02*
X030752Y006950D01*
X030752Y005950D02*
X031352Y005950D01*
X031352Y004950D02*
X030752Y004950D01*
X030752Y003950D02*
X031352Y003950D01*
X031352Y002950D02*
X030752Y002950D01*
X030752Y001950D02*
X031352Y001950D01*
D12*
X026202Y011950D03*
X024152Y011950D03*
X025152Y015250D03*
X024152Y015950D03*
X026202Y015950D03*
X027552Y015950D03*
X025152Y019250D03*
X027552Y019950D03*
X020452Y027250D03*
X018752Y027250D03*
X018752Y026500D03*
X018752Y022500D03*
X018752Y031250D03*
X020452Y031250D03*
X019152Y011950D03*
X020252Y008400D03*
X016252Y008400D03*
X015152Y011950D03*
D13*
X021452Y008400D03*
X022452Y008400D03*
X021402Y023000D03*
X020902Y023750D03*
X021902Y023750D03*
X023352Y023750D03*
X023852Y023000D03*
X024352Y023750D03*
X025702Y023750D03*
X026202Y023000D03*
X026702Y023750D03*
D14*
X013652Y009750D03*
D15*
X012652Y009750D03*
D16*
X021452Y007110D02*
X021452Y006590D01*
X022452Y006590D02*
X022452Y007110D01*
X023452Y007110D02*
X023452Y006590D01*
D17*
X030156Y023150D02*
X030749Y023150D01*
X030749Y024150D02*
X030156Y024150D01*
D18*
X027752Y021200D03*
X026752Y021200D03*
X025752Y021200D03*
X024752Y021200D03*
X023752Y021200D03*
X022752Y021200D03*
X021752Y021200D03*
X020752Y021200D03*
X019252Y021200D03*
X018252Y021200D03*
X017252Y021200D03*
X016252Y021200D03*
X015252Y021200D03*
X014252Y021200D03*
X013252Y021200D03*
X012252Y021200D03*
X011252Y021200D03*
X010252Y021200D03*
X013752Y002200D03*
X014752Y002200D03*
X015752Y002200D03*
X016752Y002200D03*
X017752Y002200D03*
X018752Y002200D03*
X019752Y002200D03*
X020752Y002200D03*
X022752Y002200D03*
X023752Y002200D03*
X024752Y002200D03*
X025752Y002200D03*
X026752Y002200D03*
X027752Y002200D03*
D19*
X010252Y023400D02*
X010252Y026400D01*
X010252Y027950D02*
X010252Y030950D01*
X027602Y025250D02*
X031002Y028650D01*
X028952Y027800D02*
X028952Y030800D01*
D20*
X010252Y004850D02*
X012102Y003000D01*
X013952Y003000D01*
X014752Y002200D01*
X015752Y002200D02*
X014552Y003400D01*
X012852Y003400D01*
X010952Y005300D01*
X010952Y014600D01*
X012702Y016350D01*
X013452Y016100D02*
X013702Y016350D01*
X013452Y016100D02*
X013452Y012250D01*
X014952Y010750D01*
X014952Y005900D01*
X016752Y004100D01*
X016752Y002200D01*
X017752Y002200D02*
X017752Y005800D01*
X015602Y007950D01*
X015602Y009650D01*
X015352Y009900D01*
X015352Y011000D01*
X016202Y011850D01*
X016202Y014850D01*
X014702Y016350D01*
X014702Y017350D02*
X014702Y020650D01*
X015252Y021200D01*
X015702Y020650D02*
X016252Y021200D01*
X015702Y020650D02*
X015702Y017350D01*
X015702Y016350D02*
X015702Y016200D01*
X017102Y014800D01*
X017102Y012950D01*
X018752Y011300D01*
X018752Y002200D01*
X019952Y003400D01*
X019952Y004550D01*
X020652Y004850D02*
X020652Y004050D01*
X022502Y002200D01*
X022752Y002200D01*
X023752Y002200D02*
X023752Y002700D01*
X019902Y006550D01*
X019902Y007750D01*
X019602Y008050D01*
X019602Y010350D01*
X020652Y011400D01*
X020652Y012700D01*
X018602Y014750D01*
X018602Y015450D01*
X017702Y016350D01*
X017702Y015350D02*
X016702Y016350D01*
X017702Y015350D02*
X017702Y014700D01*
X019952Y012450D01*
X019952Y011950D01*
X019252Y011250D01*
X019252Y006250D01*
X020652Y004850D01*
X023352Y004400D02*
X023352Y005800D01*
X024352Y006800D01*
X024352Y007750D01*
X023202Y008900D01*
X021652Y008900D01*
X021652Y010450D01*
X021302Y010800D01*
X021302Y012800D01*
X019852Y014250D01*
X019852Y015200D01*
X018702Y016350D01*
X019702Y016350D02*
X021252Y014800D01*
X021252Y013600D01*
X021902Y012950D01*
X021902Y011000D01*
X025502Y007400D01*
X025502Y006100D01*
X024102Y004700D01*
X024102Y004450D01*
X025752Y002800D01*
X025752Y002200D01*
X024752Y002200D02*
X024752Y003000D01*
X023352Y004400D01*
X024952Y004550D02*
X026752Y002750D01*
X026752Y002200D01*
X027752Y002200D02*
X027752Y006250D01*
X022802Y011200D01*
X022802Y012850D01*
X021702Y013950D01*
X021702Y015350D01*
X020702Y016350D01*
X022852Y015400D02*
X022852Y017450D01*
X020752Y019550D01*
X018902Y019550D01*
X017252Y021200D01*
X018252Y021200D02*
X019402Y020050D01*
X021152Y020050D01*
X023552Y017650D01*
X023552Y015550D01*
X025202Y013900D01*
X025202Y011100D01*
X025752Y010550D01*
X029852Y010550D01*
X030452Y009950D01*
X031052Y009950D01*
X031052Y008950D02*
X030502Y008950D01*
X029252Y010200D01*
X024752Y010200D01*
X023352Y011600D01*
X023352Y014900D01*
X022852Y015400D01*
X026802Y019150D02*
X024752Y021200D01*
X023752Y021200D02*
X025552Y023000D01*
X026202Y023000D01*
X026702Y023750D02*
X029302Y021150D01*
X030152Y021150D01*
X031152Y021150D01*
X031152Y020150D02*
X030152Y020150D01*
X031152Y020150D02*
X031902Y019400D01*
X031902Y002150D01*
X031702Y001950D01*
X031052Y001950D01*
X029302Y001950D01*
X028802Y001450D01*
X018502Y001450D01*
X017752Y002200D01*
X010252Y004850D02*
X010252Y014900D01*
X011702Y016350D01*
X011702Y017350D02*
X011702Y020750D01*
X011252Y021200D01*
X010252Y021200D02*
X010252Y017800D01*
X010702Y017350D01*
X012702Y017350D02*
X012702Y020750D01*
X012252Y021200D01*
X013252Y021200D02*
X014252Y022200D01*
X014252Y023400D01*
X014252Y026400D01*
X014252Y027950D01*
X014252Y030950D01*
X012252Y030950D02*
X012252Y027950D01*
X012252Y026400D02*
X012252Y023400D01*
X014252Y021200D02*
X013702Y020650D01*
X013702Y017350D01*
X021402Y021550D02*
X021752Y021200D01*
X021402Y021550D02*
X021402Y023000D01*
X022752Y021200D02*
X023852Y022300D01*
X023852Y023000D01*
X024352Y023750D02*
X024952Y024350D01*
X024952Y027800D01*
X024952Y030800D01*
X026952Y030800D02*
X026952Y027800D01*
X026802Y019150D02*
X028302Y019150D01*
X028852Y018600D01*
X028852Y015800D01*
X029452Y015200D01*
X029452Y012600D01*
X030102Y011950D01*
X031052Y011950D01*
X029702Y016250D02*
X029402Y016250D01*
X029702Y016250D02*
X030652Y017200D01*
X030652Y019150D01*
X031152Y019150D01*
D21*
X029402Y016250D03*
X027602Y025250D03*
X025702Y028650D03*
D22*
X025702Y023750D01*
X021252Y024100D02*
X020902Y023750D01*
X021252Y024100D02*
X021252Y028600D01*
X021952Y029300D01*
X021952Y030800D01*
X019602Y030950D02*
X019602Y028100D01*
X020452Y027250D01*
X019602Y030950D02*
X019302Y031250D01*
X018752Y031250D01*
M02*
