G75*
%MOIN*%
%OFA0B0*%
%FSLAX24Y24*%
%IPPOS*%
%LPD*%
%AMOC8*
5,1,8,0,0,1.08239X$1,22.5*
%
%ADD10C,0.0000*%
%ADD11C,0.0060*%
%ADD12C,0.0050*%
%ADD13R,0.0180X0.0320*%
%ADD14C,0.0070*%
%ADD15R,0.0500X0.1000*%
%ADD16R,0.1000X0.0200*%
%ADD17R,0.0300X0.0750*%
%ADD18R,0.0320X0.0180*%
%ADD19R,0.0200X0.1000*%
%ADD20R,0.0750X0.0300*%
%ADD21C,0.0100*%
%ADD22C,0.0200*%
%ADD23R,0.4200X0.0300*%
%ADD24R,0.0750X0.0200*%
%ADD25R,0.0300X0.0200*%
%ADD26C,0.0040*%
D10*
X009152Y000100D02*
X009152Y032396D01*
X033522Y032396D01*
X033522Y000100D01*
X009152Y000100D01*
D11*
X014582Y002775D02*
X014582Y002888D01*
X014582Y002832D02*
X014922Y002832D01*
X014922Y002888D02*
X014922Y002775D01*
X014866Y003021D02*
X014639Y003021D01*
X014582Y003077D01*
X014582Y003191D01*
X014639Y003247D01*
X014866Y003247D01*
X014922Y003191D01*
X014922Y003077D01*
X014866Y003021D01*
X014922Y003389D02*
X014582Y003389D01*
X014582Y003559D01*
X014639Y003616D01*
X014752Y003616D01*
X014809Y003559D01*
X014809Y003389D01*
X014809Y003502D02*
X014922Y003616D01*
X014922Y003757D02*
X014922Y003984D01*
X014922Y004125D02*
X014582Y004125D01*
X014582Y004352D01*
X014752Y004239D02*
X014752Y004125D01*
X014582Y003984D02*
X014582Y003757D01*
X014922Y003757D01*
X014752Y003757D02*
X014752Y003871D01*
X015582Y003738D02*
X015582Y003512D01*
X015582Y003625D02*
X015922Y003625D01*
X015866Y003370D02*
X015922Y003313D01*
X015922Y003200D01*
X015866Y003143D01*
X015752Y003200D02*
X015752Y003313D01*
X015809Y003370D01*
X015866Y003370D01*
X015752Y003200D02*
X015696Y003143D01*
X015639Y003143D01*
X015582Y003200D01*
X015582Y003313D01*
X015639Y003370D01*
X015639Y003002D02*
X015752Y003002D01*
X015809Y002945D01*
X015809Y002775D01*
X015922Y002775D02*
X015582Y002775D01*
X015582Y002945D01*
X015639Y003002D01*
X015809Y002888D02*
X015922Y003002D01*
X016582Y003200D02*
X016582Y003313D01*
X016639Y003370D01*
X016696Y003370D01*
X016752Y003313D01*
X016809Y003370D01*
X016866Y003370D01*
X016922Y003313D01*
X016922Y003200D01*
X016866Y003143D01*
X016752Y003257D02*
X016752Y003313D01*
X016639Y003143D02*
X016582Y003200D01*
X016752Y003002D02*
X016752Y002775D01*
X016639Y002888D02*
X016866Y002888D01*
X016866Y003512D02*
X016866Y003568D01*
X016922Y003568D01*
X016922Y003512D01*
X016866Y003512D01*
X016866Y003696D02*
X016922Y003753D01*
X016922Y003866D01*
X016866Y003923D01*
X016809Y003923D01*
X016752Y003866D01*
X016752Y003809D01*
X016752Y003866D02*
X016696Y003923D01*
X016639Y003923D01*
X016582Y003866D01*
X016582Y003753D01*
X016639Y003696D01*
X016582Y004064D02*
X016809Y004064D01*
X016922Y004178D01*
X016809Y004291D01*
X016582Y004291D01*
X017582Y003738D02*
X017809Y003738D01*
X017922Y003625D01*
X017809Y003512D01*
X017582Y003512D01*
X017582Y003370D02*
X017582Y003143D01*
X017752Y003143D01*
X017696Y003257D01*
X017696Y003313D01*
X017752Y003370D01*
X017866Y003370D01*
X017922Y003313D01*
X017922Y003200D01*
X017866Y003143D01*
X017752Y003002D02*
X017752Y002775D01*
X017639Y002888D02*
X017866Y002888D01*
X018582Y002832D02*
X018639Y002775D01*
X018866Y002775D01*
X018922Y002832D01*
X018922Y002945D01*
X018866Y003002D01*
X018752Y003002D01*
X018752Y002888D01*
X018639Y003002D02*
X018582Y002945D01*
X018582Y002832D01*
X018582Y003143D02*
X018922Y003370D01*
X018582Y003370D01*
X018582Y003512D02*
X018582Y003682D01*
X018639Y003738D01*
X018866Y003738D01*
X018922Y003682D01*
X018922Y003512D01*
X018582Y003512D01*
X018582Y003143D02*
X018922Y003143D01*
X019582Y003143D02*
X019922Y003370D01*
X019582Y003370D01*
X019582Y003512D02*
X019582Y003682D01*
X019639Y003738D01*
X019866Y003738D01*
X019922Y003682D01*
X019922Y003512D01*
X019582Y003512D01*
X019582Y003143D02*
X019922Y003143D01*
X019866Y003002D02*
X019752Y003002D01*
X019752Y002888D01*
X019639Y002775D02*
X019866Y002775D01*
X019922Y002832D01*
X019922Y002945D01*
X019866Y003002D01*
X019639Y003002D02*
X019582Y002945D01*
X019582Y002832D01*
X019639Y002775D01*
X020582Y002775D02*
X020809Y002775D01*
X020922Y002888D01*
X020809Y003002D01*
X020582Y003002D01*
X020582Y003143D02*
X020582Y003257D01*
X020582Y003200D02*
X020922Y003200D01*
X020922Y003143D02*
X020922Y003257D01*
X020922Y003389D02*
X020582Y003389D01*
X020922Y003616D01*
X020582Y003616D01*
X020602Y003850D02*
X024302Y003850D01*
X024319Y003852D01*
X024336Y003856D01*
X024352Y003863D01*
X024366Y003873D01*
X024379Y003886D01*
X024389Y003900D01*
X024396Y003916D01*
X024400Y003933D01*
X024402Y003950D01*
X024402Y005150D01*
X024400Y005167D01*
X024396Y005184D01*
X024389Y005200D01*
X024379Y005214D01*
X024366Y005227D01*
X024352Y005237D01*
X024336Y005244D01*
X024319Y005248D01*
X024302Y005250D01*
X020602Y005250D01*
X020585Y005248D01*
X020568Y005244D01*
X020552Y005237D01*
X020538Y005227D01*
X020525Y005214D01*
X020515Y005200D01*
X020508Y005184D01*
X020504Y005167D01*
X020502Y005150D01*
X020502Y003950D01*
X020504Y003933D01*
X020508Y003916D01*
X020515Y003900D01*
X020525Y003886D01*
X020538Y003873D01*
X020552Y003863D01*
X020568Y003856D01*
X020585Y003852D01*
X020602Y003850D01*
X022582Y002945D02*
X022582Y002832D01*
X022639Y002775D01*
X022866Y002775D01*
X022639Y003002D01*
X022866Y003002D01*
X022922Y002945D01*
X022922Y002832D01*
X022866Y002775D01*
X022639Y003002D02*
X022582Y002945D01*
X023582Y002888D02*
X023922Y002888D01*
X023922Y002775D02*
X023922Y003002D01*
X023696Y002775D02*
X023582Y002888D01*
X023763Y003375D02*
X023763Y003602D01*
X023877Y003715D01*
X023990Y003602D01*
X023990Y003375D01*
X024131Y003375D02*
X024131Y003602D01*
X024302Y003602D01*
X024358Y003545D01*
X024358Y003375D01*
X024500Y003432D02*
X024556Y003488D01*
X024727Y003488D01*
X024727Y003545D02*
X024727Y003375D01*
X024556Y003375D01*
X024500Y003432D01*
X024556Y003602D02*
X024670Y003602D01*
X024727Y003545D01*
X024868Y003375D02*
X024981Y003375D01*
X024925Y003375D02*
X024925Y003715D01*
X024868Y003715D01*
X025114Y003545D02*
X025114Y003432D01*
X025170Y003375D01*
X025284Y003375D01*
X025340Y003432D01*
X025340Y003545D01*
X025284Y003602D01*
X025170Y003602D01*
X025114Y003545D01*
X025482Y003545D02*
X025539Y003602D01*
X025709Y003602D01*
X025709Y003318D01*
X025652Y003262D01*
X025595Y003262D01*
X025539Y003375D02*
X025709Y003375D01*
X025539Y003375D02*
X025482Y003432D01*
X025482Y003545D01*
X025639Y003002D02*
X025696Y003002D01*
X025752Y002945D01*
X025809Y003002D01*
X025866Y003002D01*
X025922Y002945D01*
X025922Y002832D01*
X025866Y002775D01*
X025752Y002888D02*
X025752Y002945D01*
X025639Y003002D02*
X025582Y002945D01*
X025582Y002832D01*
X025639Y002775D01*
X024922Y002775D02*
X024696Y003002D01*
X024639Y003002D01*
X024582Y002945D01*
X024582Y002832D01*
X024639Y002775D01*
X024922Y002775D02*
X024922Y003002D01*
X023990Y003545D02*
X023763Y003545D01*
X025002Y005250D02*
X028702Y005250D01*
X028719Y005252D01*
X028736Y005256D01*
X028752Y005263D01*
X028766Y005273D01*
X028779Y005286D01*
X028789Y005300D01*
X028796Y005316D01*
X028800Y005333D01*
X028802Y005350D01*
X028802Y006550D01*
X028800Y006567D01*
X028796Y006584D01*
X028789Y006600D01*
X028779Y006614D01*
X028766Y006627D01*
X028752Y006637D01*
X028736Y006644D01*
X028719Y006648D01*
X028702Y006650D01*
X025002Y006650D01*
X024985Y006648D01*
X024968Y006644D01*
X024952Y006637D01*
X024938Y006627D01*
X024925Y006614D01*
X024915Y006600D01*
X024908Y006584D01*
X024904Y006567D01*
X024902Y006550D01*
X024902Y005350D01*
X024904Y005333D01*
X024908Y005316D01*
X024915Y005300D01*
X024925Y005286D01*
X024938Y005273D01*
X024952Y005263D01*
X024968Y005256D01*
X024985Y005252D01*
X025002Y005250D01*
X026219Y003715D02*
X026332Y003715D01*
X026275Y003715D02*
X026275Y003375D01*
X026219Y003375D02*
X026332Y003375D01*
X026464Y003375D02*
X026464Y003602D01*
X026634Y003602D01*
X026691Y003545D01*
X026691Y003375D01*
X026752Y003002D02*
X026752Y002775D01*
X026582Y002945D01*
X026922Y002945D01*
X027582Y003002D02*
X027582Y002775D01*
X027752Y002775D01*
X027696Y002888D01*
X027696Y002945D01*
X027752Y003002D01*
X027866Y003002D01*
X027922Y002945D01*
X027922Y002832D01*
X027866Y002775D01*
X022802Y007900D02*
X021102Y007900D01*
X021085Y007902D01*
X021068Y007906D01*
X021052Y007913D01*
X021038Y007923D01*
X021025Y007936D01*
X021015Y007950D01*
X021008Y007966D01*
X021004Y007983D01*
X021002Y008000D01*
X021002Y008800D01*
X021004Y008817D01*
X021008Y008834D01*
X021015Y008850D01*
X021025Y008864D01*
X021038Y008877D01*
X021052Y008887D01*
X021068Y008894D01*
X021085Y008898D01*
X021102Y008900D01*
X022802Y008900D01*
X022819Y008898D01*
X022836Y008894D01*
X022852Y008887D01*
X022866Y008877D01*
X022879Y008864D01*
X022889Y008850D01*
X022896Y008834D01*
X022900Y008817D01*
X022902Y008800D01*
X022902Y008000D01*
X022900Y007983D01*
X022896Y007966D01*
X022889Y007950D01*
X022879Y007936D01*
X022866Y007923D01*
X022852Y007913D01*
X022836Y007906D01*
X022819Y007902D01*
X022802Y007900D01*
X022102Y008400D02*
X022052Y008400D01*
X021852Y008400D02*
X021802Y008400D01*
X021152Y010000D02*
X019952Y010000D01*
X019935Y010002D01*
X019918Y010006D01*
X019902Y010013D01*
X019888Y010023D01*
X019875Y010036D01*
X019865Y010050D01*
X019858Y010066D01*
X019854Y010083D01*
X019852Y010100D01*
X019852Y013800D01*
X019854Y013817D01*
X019858Y013834D01*
X019865Y013850D01*
X019875Y013864D01*
X019888Y013877D01*
X019902Y013887D01*
X019918Y013894D01*
X019935Y013898D01*
X019952Y013900D01*
X021152Y013900D01*
X021169Y013898D01*
X021186Y013894D01*
X021202Y013887D01*
X021216Y013877D01*
X021229Y013864D01*
X021239Y013850D01*
X021246Y013834D01*
X021250Y013817D01*
X021252Y013800D01*
X021252Y010100D01*
X021250Y010083D01*
X021246Y010066D01*
X021239Y010050D01*
X021229Y010036D01*
X021216Y010023D01*
X021202Y010013D01*
X021186Y010006D01*
X021169Y010002D01*
X021152Y010000D01*
X019052Y010000D02*
X019002Y011150D01*
X018902Y011250D01*
X015202Y011250D01*
X015102Y011150D01*
X015052Y010000D01*
X011802Y009750D02*
X011804Y009823D01*
X011810Y009896D01*
X011820Y009968D01*
X011834Y010040D01*
X011851Y010111D01*
X011873Y010181D01*
X011898Y010250D01*
X011927Y010317D01*
X011959Y010382D01*
X011995Y010446D01*
X012035Y010508D01*
X012077Y010567D01*
X012123Y010624D01*
X012172Y010678D01*
X012224Y010730D01*
X012278Y010779D01*
X012335Y010825D01*
X012394Y010867D01*
X012456Y010907D01*
X012520Y010943D01*
X012585Y010975D01*
X012652Y011004D01*
X012721Y011029D01*
X012791Y011051D01*
X012862Y011068D01*
X012934Y011082D01*
X013006Y011092D01*
X013079Y011098D01*
X013152Y011100D01*
X013225Y011098D01*
X013298Y011092D01*
X013370Y011082D01*
X013442Y011068D01*
X013513Y011051D01*
X013583Y011029D01*
X013652Y011004D01*
X013719Y010975D01*
X013784Y010943D01*
X013848Y010907D01*
X013910Y010867D01*
X013969Y010825D01*
X014026Y010779D01*
X014080Y010730D01*
X014132Y010678D01*
X014181Y010624D01*
X014227Y010567D01*
X014269Y010508D01*
X014309Y010446D01*
X014345Y010382D01*
X014377Y010317D01*
X014406Y010250D01*
X014431Y010181D01*
X014453Y010111D01*
X014470Y010040D01*
X014484Y009968D01*
X014494Y009896D01*
X014500Y009823D01*
X014502Y009750D01*
X014500Y009677D01*
X014494Y009604D01*
X014484Y009532D01*
X014470Y009460D01*
X014453Y009389D01*
X014431Y009319D01*
X014406Y009250D01*
X014377Y009183D01*
X014345Y009118D01*
X014309Y009054D01*
X014269Y008992D01*
X014227Y008933D01*
X014181Y008876D01*
X014132Y008822D01*
X014080Y008770D01*
X014026Y008721D01*
X013969Y008675D01*
X013910Y008633D01*
X013848Y008593D01*
X013784Y008557D01*
X013719Y008525D01*
X013652Y008496D01*
X013583Y008471D01*
X013513Y008449D01*
X013442Y008432D01*
X013370Y008418D01*
X013298Y008408D01*
X013225Y008402D01*
X013152Y008400D01*
X013079Y008402D01*
X013006Y008408D01*
X012934Y008418D01*
X012862Y008432D01*
X012791Y008449D01*
X012721Y008471D01*
X012652Y008496D01*
X012585Y008525D01*
X012520Y008557D01*
X012456Y008593D01*
X012394Y008633D01*
X012335Y008675D01*
X012278Y008721D01*
X012224Y008770D01*
X012172Y008822D01*
X012123Y008876D01*
X012077Y008933D01*
X012035Y008992D01*
X011995Y009054D01*
X011959Y009118D01*
X011927Y009183D01*
X011898Y009250D01*
X011873Y009319D01*
X011851Y009389D01*
X011834Y009460D01*
X011820Y009532D01*
X011810Y009604D01*
X011804Y009677D01*
X011802Y009750D01*
X011952Y009750D02*
X012252Y009750D01*
X012102Y009600D02*
X012102Y009900D01*
X016352Y011450D02*
X016352Y012450D01*
X017952Y012450D01*
X017952Y011450D01*
X016352Y011450D01*
X016902Y011950D02*
X017152Y011950D01*
X017152Y011700D01*
X017152Y011950D02*
X017152Y012200D01*
X017152Y011950D02*
X017552Y012200D01*
X017552Y011700D01*
X017152Y011950D01*
X017752Y011950D01*
X017452Y008900D02*
X017452Y007900D01*
X019052Y007900D01*
X019052Y008900D01*
X017452Y008900D01*
X017852Y008650D02*
X017852Y008150D01*
X018252Y008400D01*
X018252Y008150D01*
X018152Y008150D01*
X018252Y008400D02*
X017852Y008650D01*
X017652Y008400D02*
X018252Y008400D01*
X018252Y008650D01*
X018252Y008400D02*
X018502Y008400D01*
X020052Y007550D02*
X016352Y007550D01*
X016335Y007548D01*
X016318Y007544D01*
X016302Y007537D01*
X016288Y007527D01*
X016275Y007514D01*
X016265Y007500D01*
X016258Y007484D01*
X016254Y007467D01*
X016252Y007450D01*
X016252Y006250D01*
X016254Y006233D01*
X016258Y006216D01*
X016265Y006200D01*
X016275Y006186D01*
X016288Y006173D01*
X016302Y006163D01*
X016318Y006156D01*
X016335Y006152D01*
X016352Y006150D01*
X020052Y006150D01*
X020069Y006152D01*
X020086Y006156D01*
X020102Y006163D01*
X020116Y006173D01*
X020129Y006186D01*
X020139Y006200D01*
X020146Y006216D01*
X020150Y006233D01*
X020152Y006250D01*
X020152Y007450D01*
X020150Y007467D01*
X020146Y007484D01*
X020139Y007500D01*
X020129Y007514D01*
X020116Y007527D01*
X020102Y007537D01*
X020086Y007544D01*
X020069Y007548D01*
X020052Y007550D01*
X023652Y013150D02*
X024652Y013150D01*
X024652Y014750D01*
X023652Y014750D01*
X023652Y013150D01*
X023902Y013550D02*
X024152Y013950D01*
X023902Y013950D01*
X024152Y013950D02*
X024402Y013950D01*
X024152Y013950D02*
X024152Y013350D01*
X024402Y013550D02*
X023902Y013550D01*
X024152Y013950D02*
X024402Y013550D01*
X024152Y013950D02*
X024152Y014200D01*
X025702Y014750D02*
X025702Y013150D01*
X026702Y013150D01*
X026702Y014750D01*
X025702Y014750D01*
X026202Y014200D02*
X026202Y013950D01*
X025952Y013950D01*
X026202Y013950D02*
X026452Y013950D01*
X026202Y013950D02*
X026202Y013350D01*
X025952Y013550D02*
X026202Y013950D01*
X026452Y013550D01*
X025952Y013550D01*
X027252Y013450D02*
X027252Y012950D01*
X027502Y012700D01*
X029002Y012700D01*
X029252Y012450D01*
X029252Y011950D01*
X029002Y011700D01*
X029252Y011450D01*
X029252Y010950D01*
X029002Y010700D01*
X027502Y010700D01*
X027252Y010950D01*
X027252Y011450D01*
X027502Y011700D01*
X029002Y011700D01*
X029002Y012700D02*
X029252Y012950D01*
X029252Y013450D01*
X029002Y013700D01*
X027502Y013700D01*
X027252Y013450D01*
X027502Y012700D02*
X027252Y012450D01*
X027252Y011950D01*
X027502Y011700D01*
X025652Y016450D02*
X024652Y016450D01*
X024652Y018050D01*
X025652Y018050D01*
X025652Y016450D01*
X025402Y016850D02*
X025152Y017250D01*
X024902Y017250D01*
X025152Y017250D02*
X025402Y017250D01*
X025152Y017250D02*
X025152Y016650D01*
X024902Y016850D02*
X025152Y017250D01*
X025152Y017500D01*
X025402Y016850D02*
X024902Y016850D01*
X027052Y017150D02*
X027052Y018750D01*
X028052Y018750D01*
X028052Y017150D01*
X027052Y017150D01*
X027552Y017350D02*
X027552Y017950D01*
X027302Y017950D01*
X027552Y017950D02*
X027802Y017950D01*
X027552Y017950D02*
X027302Y017550D01*
X027802Y017550D01*
X027552Y017950D01*
X027552Y018200D01*
X027582Y019993D02*
X027582Y020164D01*
X027639Y020220D01*
X027752Y020220D01*
X027809Y020164D01*
X027809Y019993D01*
X027922Y019993D02*
X027582Y019993D01*
X027809Y020107D02*
X027922Y020220D01*
X027922Y020362D02*
X027582Y020589D01*
X027582Y020362D02*
X027922Y020589D01*
X026922Y020589D02*
X026582Y020362D01*
X026582Y020220D02*
X026582Y019993D01*
X026582Y020107D02*
X026922Y020107D01*
X026922Y020362D02*
X026582Y020589D01*
X025922Y020589D02*
X025922Y020362D01*
X025696Y020589D01*
X025639Y020589D01*
X025582Y020532D01*
X025582Y020418D01*
X025639Y020362D01*
X024922Y020418D02*
X024866Y020362D01*
X024922Y020418D02*
X024922Y020532D01*
X024866Y020589D01*
X024809Y020589D01*
X024752Y020532D01*
X024752Y020475D01*
X024752Y020532D02*
X024696Y020589D01*
X024639Y020589D01*
X024582Y020532D01*
X024582Y020418D01*
X024639Y020362D01*
X023922Y020532D02*
X023582Y020532D01*
X023752Y020362D01*
X023752Y020589D01*
X022922Y020532D02*
X022922Y020418D01*
X022866Y020362D01*
X022752Y020362D02*
X022696Y020475D01*
X022696Y020532D01*
X022752Y020589D01*
X022866Y020589D01*
X022922Y020532D01*
X022752Y020362D02*
X022582Y020362D01*
X022582Y020589D01*
X021922Y020532D02*
X021922Y020418D01*
X021866Y020362D01*
X021752Y020362D01*
X021752Y020532D01*
X021809Y020589D01*
X021866Y020589D01*
X021922Y020532D01*
X021752Y020362D02*
X021639Y020475D01*
X021582Y020589D01*
X020922Y020362D02*
X020866Y020362D01*
X020639Y020589D01*
X020582Y020589D01*
X020582Y020362D01*
X019422Y020418D02*
X019366Y020362D01*
X019309Y020362D01*
X019252Y020418D01*
X019252Y020532D01*
X019309Y020589D01*
X019366Y020589D01*
X019422Y020532D01*
X019422Y020418D01*
X019252Y020418D02*
X019196Y020362D01*
X019139Y020362D01*
X019082Y020418D01*
X019082Y020532D01*
X019139Y020589D01*
X019196Y020589D01*
X019252Y020532D01*
X018422Y020532D02*
X018422Y020418D01*
X018366Y020362D01*
X018252Y020418D02*
X018252Y020589D01*
X018139Y020589D02*
X018366Y020589D01*
X018422Y020532D01*
X018252Y020418D02*
X018196Y020362D01*
X018139Y020362D01*
X018082Y020418D01*
X018082Y020532D01*
X018139Y020589D01*
X017422Y020532D02*
X017422Y020418D01*
X017366Y020362D01*
X017139Y020589D01*
X017366Y020589D01*
X017422Y020532D01*
X017366Y020362D02*
X017139Y020362D01*
X017082Y020418D01*
X017082Y020532D01*
X017139Y020589D01*
X017422Y020220D02*
X017422Y019993D01*
X017422Y020107D02*
X017082Y020107D01*
X017196Y019993D01*
X016422Y019993D02*
X016422Y020220D01*
X016422Y020107D02*
X016082Y020107D01*
X016196Y019993D01*
X016196Y020362D02*
X016082Y020475D01*
X016422Y020475D01*
X016422Y020362D02*
X016422Y020589D01*
X015422Y020589D02*
X015422Y020362D01*
X015196Y020589D01*
X015139Y020589D01*
X015082Y020532D01*
X015082Y020418D01*
X015139Y020362D01*
X015082Y020107D02*
X015422Y020107D01*
X015422Y020220D02*
X015422Y019993D01*
X015196Y019993D02*
X015082Y020107D01*
X014422Y020107D02*
X014082Y020107D01*
X014196Y019993D01*
X014422Y019993D02*
X014422Y020220D01*
X014366Y020362D02*
X014422Y020418D01*
X014422Y020532D01*
X014366Y020589D01*
X014309Y020589D01*
X014252Y020532D01*
X014252Y020475D01*
X014252Y020532D02*
X014196Y020589D01*
X014139Y020589D01*
X014082Y020532D01*
X014082Y020418D01*
X014139Y020362D01*
X013422Y020362D02*
X013422Y020532D01*
X013366Y020589D01*
X013139Y020589D01*
X013082Y020532D01*
X013082Y020362D01*
X013422Y020362D01*
X013422Y020220D02*
X013082Y020220D01*
X013082Y019993D02*
X013422Y020220D01*
X013422Y019993D02*
X013082Y019993D01*
X013139Y019852D02*
X013082Y019795D01*
X013082Y019682D01*
X013139Y019625D01*
X013366Y019625D01*
X013422Y019682D01*
X013422Y019795D01*
X013366Y019852D01*
X013252Y019852D01*
X013252Y019738D01*
X012422Y019625D02*
X012082Y019625D01*
X012082Y019795D01*
X012139Y019852D01*
X012252Y019852D01*
X012309Y019795D01*
X012309Y019625D01*
X012309Y019738D02*
X012422Y019852D01*
X012422Y019993D02*
X012422Y020220D01*
X012422Y020362D02*
X012082Y020362D01*
X012082Y020589D01*
X012252Y020475D02*
X012252Y020362D01*
X012082Y020220D02*
X012082Y019993D01*
X012422Y019993D01*
X012252Y019993D02*
X012252Y020107D01*
X012252Y019484D02*
X012252Y019257D01*
X012196Y019257D02*
X012082Y019370D01*
X012196Y019484D01*
X012422Y019484D01*
X012422Y019257D02*
X012196Y019257D01*
X011422Y019682D02*
X011366Y019625D01*
X011422Y019682D02*
X011422Y019795D01*
X011366Y019852D01*
X011309Y019852D01*
X011252Y019795D01*
X011252Y019682D01*
X011196Y019625D01*
X011139Y019625D01*
X011082Y019682D01*
X011082Y019795D01*
X011139Y019852D01*
X011082Y019993D02*
X011422Y019993D01*
X011422Y020164D01*
X011366Y020220D01*
X011139Y020220D01*
X011082Y020164D01*
X011082Y019993D01*
X011196Y020362D02*
X011082Y020475D01*
X011196Y020589D01*
X011422Y020589D01*
X011252Y020589D02*
X011252Y020362D01*
X011196Y020362D02*
X011422Y020362D01*
X010422Y020362D02*
X010422Y020589D01*
X010422Y020362D02*
X010082Y020362D01*
X010139Y020220D02*
X010082Y020164D01*
X010082Y020050D01*
X010139Y019993D01*
X010366Y019993D01*
X010422Y020050D01*
X010422Y020164D01*
X010366Y020220D01*
X010366Y019852D02*
X010422Y019795D01*
X010422Y019682D01*
X010366Y019625D01*
X010252Y019682D02*
X010252Y019795D01*
X010309Y019852D01*
X010366Y019852D01*
X010252Y019682D02*
X010196Y019625D01*
X010139Y019625D01*
X010082Y019682D01*
X010082Y019795D01*
X010139Y019852D01*
X009752Y022900D02*
X017752Y022900D01*
X017752Y024400D01*
X017752Y025400D01*
X017752Y026900D01*
X009752Y026900D01*
X009752Y022900D01*
X010672Y023400D02*
X011002Y023400D01*
X011252Y023650D02*
X011502Y023400D01*
X011622Y023270D01*
X011502Y023400D02*
X011822Y023400D01*
X011252Y023650D02*
X011252Y024150D01*
X014252Y024150D01*
X014252Y023800D01*
X014252Y025650D02*
X011252Y025650D01*
X011252Y026150D01*
X011502Y026400D01*
X011622Y026530D01*
X011502Y026400D02*
X011822Y026400D01*
X011002Y026400D02*
X010672Y026400D01*
X009752Y027450D02*
X017752Y027450D01*
X017752Y028950D01*
X017752Y029950D01*
X017752Y031450D01*
X009752Y031450D01*
X009752Y027450D01*
X010672Y027950D02*
X011002Y027950D01*
X011252Y028200D02*
X011502Y027950D01*
X011622Y027820D01*
X011502Y027950D02*
X011822Y027950D01*
X011252Y028200D02*
X011252Y028700D01*
X014252Y028700D01*
X014252Y028350D01*
X014252Y030200D02*
X011252Y030200D01*
X011252Y030700D01*
X011502Y030950D01*
X011622Y031080D01*
X011502Y030950D02*
X011822Y030950D01*
X011002Y030950D02*
X010672Y030950D01*
X014252Y030550D02*
X014252Y030200D01*
X016002Y029700D02*
X016002Y029200D01*
X017002Y029700D01*
X016502Y029700D01*
X016002Y029700D01*
X016002Y029200D02*
X016502Y029200D01*
X017002Y029200D01*
X017002Y029700D01*
X017252Y029950D02*
X017752Y029950D01*
X017252Y029950D02*
X017252Y028950D01*
X017752Y028950D01*
X018252Y028450D02*
X019252Y028450D01*
X019252Y030050D01*
X018252Y030050D01*
X018252Y028450D01*
X018502Y028850D02*
X018752Y029250D01*
X018502Y029250D01*
X018752Y029250D02*
X019002Y029250D01*
X018752Y029250D02*
X019002Y028850D01*
X018502Y028850D01*
X018752Y028650D02*
X018752Y029250D01*
X018752Y029500D01*
X019952Y030050D02*
X019952Y028450D01*
X020952Y028450D01*
X020952Y030050D01*
X019952Y030050D01*
X020202Y029650D02*
X020452Y029250D01*
X020702Y029250D01*
X020452Y029250D02*
X020452Y029000D01*
X020452Y029250D02*
X020202Y029250D01*
X020452Y029250D02*
X020452Y029850D01*
X020202Y029650D02*
X020702Y029650D01*
X020452Y029250D01*
X021452Y028800D02*
X021452Y027300D01*
X029452Y027300D01*
X029452Y031300D01*
X021452Y031300D01*
X021452Y029800D01*
X021452Y028800D01*
X021952Y028800D01*
X021952Y029800D01*
X021452Y029800D01*
X022202Y029550D02*
X022202Y029050D01*
X023202Y029550D01*
X022702Y029550D01*
X022202Y029550D01*
X022202Y029050D02*
X022702Y029050D01*
X023202Y029050D01*
X023202Y029550D01*
X022702Y029550D02*
X022702Y030800D01*
X022352Y030800D01*
X022702Y029050D02*
X022702Y027800D01*
X022352Y027800D01*
X024952Y028200D02*
X024952Y028550D01*
X027952Y028550D01*
X027952Y028050D01*
X027702Y027800D01*
X027582Y027670D01*
X027702Y027800D02*
X027382Y027800D01*
X028202Y027800D02*
X028532Y027800D01*
X030502Y028400D02*
X030752Y028150D01*
X031252Y028150D01*
X031502Y028400D01*
X031502Y028900D01*
X031252Y029150D01*
X031502Y029400D01*
X031502Y029900D01*
X031252Y030150D01*
X031502Y030400D01*
X031502Y030900D01*
X031252Y031150D01*
X030752Y031150D01*
X030502Y030900D01*
X030502Y030400D01*
X030752Y030150D01*
X030502Y029900D01*
X030502Y029400D01*
X030752Y029150D01*
X030502Y028900D01*
X030502Y028400D01*
X027952Y030050D02*
X027952Y030550D01*
X027702Y030800D01*
X027582Y030930D01*
X027702Y030800D02*
X027382Y030800D01*
X028202Y030800D02*
X028532Y030800D01*
X027952Y030050D02*
X024952Y030050D01*
X024952Y030400D01*
X019252Y025300D02*
X018252Y025300D01*
X018252Y023700D01*
X019252Y023700D01*
X019252Y025300D01*
X018752Y024750D02*
X018752Y024500D01*
X018502Y024500D01*
X018752Y024500D02*
X019002Y024500D01*
X018752Y024500D02*
X018502Y024100D01*
X019002Y024100D01*
X018752Y024500D01*
X018752Y023900D01*
X017752Y024400D02*
X017252Y024400D01*
X017252Y025400D01*
X017752Y025400D01*
X017002Y025150D02*
X016002Y024650D01*
X016502Y024650D01*
X017002Y024650D01*
X017002Y025150D01*
X016502Y025150D01*
X016002Y025150D01*
X016002Y024650D01*
X016502Y024650D02*
X016502Y023400D01*
X016852Y023400D01*
X016502Y025150D02*
X016502Y026400D01*
X016852Y026400D01*
X016852Y027950D02*
X016502Y027950D01*
X016502Y029200D01*
X016502Y029700D02*
X016502Y030950D01*
X016852Y030950D01*
X014252Y026000D02*
X014252Y025650D01*
X029652Y021400D02*
X029652Y020900D01*
X029902Y020650D01*
X031402Y020650D01*
X031652Y020400D01*
X031652Y019900D01*
X031402Y019650D01*
X029902Y019650D01*
X029652Y019400D01*
X029652Y018900D01*
X029902Y018650D01*
X029652Y018400D01*
X029652Y017900D01*
X029902Y017650D01*
X031402Y017650D01*
X031652Y017900D01*
X031652Y018400D01*
X031402Y018650D01*
X029902Y018650D01*
X029902Y019650D02*
X029652Y019900D01*
X029652Y020400D01*
X029902Y020650D01*
X029652Y021400D02*
X029902Y021650D01*
X031402Y021650D01*
X031652Y021400D01*
X031652Y020900D01*
X031402Y020650D01*
X031402Y019650D02*
X031652Y019400D01*
X031652Y018900D01*
X031402Y018650D01*
D12*
X031927Y020444D02*
X031927Y020594D01*
X031927Y020519D02*
X032302Y020519D01*
X032377Y020444D01*
X032377Y020369D01*
X032302Y020294D01*
X032227Y020754D02*
X032227Y020979D01*
X032152Y021054D01*
X032002Y021054D01*
X031927Y020979D01*
X031927Y020754D01*
X032377Y020754D01*
X032302Y021215D02*
X032377Y021290D01*
X032377Y021440D01*
X032302Y021515D01*
X032227Y021515D01*
X032152Y021440D01*
X032152Y021365D01*
X032152Y021440D02*
X032077Y021515D01*
X032002Y021515D01*
X031927Y021440D01*
X031927Y021290D01*
X032002Y021215D01*
X028677Y018315D02*
X028602Y018315D01*
X028302Y018615D01*
X028227Y018615D01*
X028227Y018315D01*
X028302Y018154D02*
X028227Y018079D01*
X028227Y017854D01*
X028677Y017854D01*
X028677Y018079D01*
X028602Y018154D01*
X028302Y018154D01*
X026277Y017840D02*
X026277Y017690D01*
X026202Y017615D01*
X026052Y017615D02*
X025977Y017765D01*
X025977Y017840D01*
X026052Y017915D01*
X026202Y017915D01*
X026277Y017840D01*
X026052Y017615D02*
X025827Y017615D01*
X025827Y017915D01*
X025902Y017454D02*
X025827Y017379D01*
X025827Y017154D01*
X026277Y017154D01*
X026277Y017379D01*
X026202Y017454D01*
X025902Y017454D01*
X025052Y014615D02*
X025052Y014315D01*
X024827Y014540D01*
X025277Y014540D01*
X025202Y014154D02*
X024902Y014154D01*
X024827Y014079D01*
X024827Y013854D01*
X025277Y013854D01*
X025277Y014079D01*
X025202Y014154D01*
X026877Y014079D02*
X026877Y013854D01*
X027327Y013854D01*
X027327Y014079D01*
X027252Y014154D01*
X026952Y014154D01*
X026877Y014079D01*
X027102Y014315D02*
X027102Y014540D01*
X027177Y014615D01*
X027252Y014615D01*
X027327Y014540D01*
X027327Y014390D01*
X027252Y014315D01*
X027102Y014315D01*
X026952Y014465D01*
X026877Y014615D01*
X029527Y013490D02*
X029527Y013340D01*
X029602Y013265D01*
X029602Y013104D02*
X029752Y013104D01*
X029827Y013029D01*
X029827Y012804D01*
X029977Y012804D02*
X029527Y012804D01*
X029527Y013029D01*
X029602Y013104D01*
X029527Y013490D02*
X029602Y013565D01*
X029677Y013565D01*
X029977Y013265D01*
X029977Y013565D01*
X029902Y012569D02*
X029527Y012569D01*
X029527Y012494D02*
X029527Y012644D01*
X029902Y012569D02*
X029977Y012494D01*
X029977Y012419D01*
X029902Y012344D01*
X025538Y007275D02*
X025538Y006825D01*
X025388Y006825D02*
X025688Y006825D01*
X025388Y007125D02*
X025538Y007275D01*
X025228Y007200D02*
X025228Y007050D01*
X025153Y006975D01*
X024927Y006975D01*
X024927Y006825D02*
X024927Y007275D01*
X025153Y007275D01*
X025228Y007200D01*
X025077Y006975D02*
X025228Y006825D01*
X023277Y007500D02*
X021628Y007500D01*
X021957Y007400D02*
X022032Y007325D01*
X022182Y007325D01*
X022257Y007400D01*
X022417Y007325D02*
X022717Y007625D01*
X022717Y007700D01*
X022642Y007775D01*
X022492Y007775D01*
X022417Y007700D01*
X022257Y007700D02*
X022182Y007775D01*
X022032Y007775D01*
X021957Y007700D01*
X021957Y007400D01*
X022417Y007325D02*
X022717Y007325D01*
X022900Y006900D02*
X023005Y006900D01*
X023403Y007297D02*
X023376Y007351D01*
X023346Y007402D01*
X023313Y007452D01*
X023278Y007500D01*
X023402Y006403D02*
X023373Y006346D01*
X023340Y006290D01*
X023305Y006237D01*
X023265Y006186D01*
X023223Y006138D01*
X023178Y006092D01*
X023131Y006049D01*
X023081Y006009D01*
X023028Y005972D01*
X022973Y005939D01*
X022917Y005908D01*
X022858Y005882D01*
X022798Y005859D01*
X022737Y005839D01*
X022675Y005824D01*
X022612Y005812D01*
X022548Y005804D01*
X022484Y005800D01*
X022420Y005800D01*
X022356Y005804D01*
X022292Y005812D01*
X022229Y005824D01*
X022167Y005839D01*
X022106Y005859D01*
X022046Y005882D01*
X021987Y005908D01*
X021931Y005939D01*
X021876Y005972D01*
X021823Y006009D01*
X021773Y006049D01*
X021726Y006092D01*
X021681Y006138D01*
X021639Y006186D01*
X021599Y006237D01*
X021564Y006290D01*
X021531Y006346D01*
X021502Y006403D01*
X021213Y005875D02*
X021063Y005875D01*
X020988Y005800D01*
X020828Y005800D02*
X020753Y005875D01*
X020527Y005875D01*
X020527Y005425D01*
X020527Y005575D02*
X020753Y005575D01*
X020828Y005650D01*
X020828Y005800D01*
X020677Y005575D02*
X020828Y005425D01*
X020988Y005425D02*
X021288Y005725D01*
X021288Y005800D01*
X021213Y005875D01*
X021288Y005425D02*
X020988Y005425D01*
X022557Y005625D02*
X022857Y005625D01*
X022707Y005625D02*
X022707Y005175D01*
X023017Y005175D02*
X023317Y005175D01*
X023167Y005175D02*
X023167Y005625D01*
X023017Y005475D01*
X021498Y007288D02*
X021525Y007344D01*
X021556Y007398D01*
X021590Y007450D01*
X021627Y007500D01*
X021900Y006900D02*
X022005Y006900D01*
X018867Y007350D02*
X018867Y007650D01*
X018792Y007725D01*
X018642Y007725D01*
X018567Y007650D01*
X018567Y007575D01*
X018642Y007500D01*
X018867Y007500D01*
X018867Y007350D02*
X018792Y007275D01*
X018642Y007275D01*
X018567Y007350D01*
X018407Y007350D02*
X018407Y007650D01*
X018332Y007725D01*
X018107Y007725D01*
X018107Y007275D01*
X018332Y007275D01*
X018407Y007350D01*
X017038Y007800D02*
X016963Y007725D01*
X016813Y007725D01*
X016738Y007800D01*
X016738Y007950D02*
X016888Y008025D01*
X016963Y008025D01*
X017038Y007950D01*
X017038Y007800D01*
X016738Y007950D02*
X016738Y008175D01*
X017038Y008175D01*
X016578Y008100D02*
X016578Y007950D01*
X016503Y007875D01*
X016277Y007875D01*
X016277Y007725D02*
X016277Y008175D01*
X016503Y008175D01*
X016578Y008100D01*
X016427Y007875D02*
X016578Y007725D01*
X015202Y007350D02*
X015152Y006200D01*
X015052Y006100D01*
X011352Y006100D01*
X011252Y006200D01*
X011202Y007350D01*
X011332Y006340D02*
X011334Y006360D01*
X011340Y006378D01*
X011349Y006396D01*
X011361Y006411D01*
X011376Y006423D01*
X011394Y006432D01*
X011412Y006438D01*
X011432Y006440D01*
X011452Y006438D01*
X011470Y006432D01*
X011488Y006423D01*
X011503Y006411D01*
X011515Y006396D01*
X011524Y006378D01*
X011530Y006360D01*
X011532Y006340D01*
X011530Y006320D01*
X011524Y006302D01*
X011515Y006284D01*
X011503Y006269D01*
X011488Y006257D01*
X011470Y006248D01*
X011452Y006242D01*
X011432Y006240D01*
X011412Y006242D01*
X011394Y006248D01*
X011376Y006257D01*
X011361Y006269D01*
X011349Y006284D01*
X011340Y006302D01*
X011334Y006320D01*
X011332Y006340D01*
X011302Y005895D02*
X011302Y005445D01*
X011227Y005445D02*
X011377Y005445D01*
X011534Y005520D02*
X011534Y005820D01*
X011609Y005895D01*
X011759Y005895D01*
X011835Y005820D01*
X011995Y005745D02*
X012145Y005895D01*
X012145Y005445D01*
X011995Y005445D02*
X012295Y005445D01*
X011835Y005520D02*
X011759Y005445D01*
X011609Y005445D01*
X011534Y005520D01*
X011377Y005895D02*
X011227Y005895D01*
X014452Y010575D02*
X014603Y010575D01*
X014678Y010650D01*
X014838Y010575D02*
X015138Y010575D01*
X014988Y010575D02*
X014988Y011025D01*
X014838Y010875D01*
X014678Y010950D02*
X014603Y011025D01*
X014452Y011025D01*
X014377Y010950D01*
X014377Y010650D01*
X014452Y010575D01*
X016377Y012625D02*
X016603Y012625D01*
X016678Y012700D01*
X016678Y013000D01*
X016603Y013075D01*
X016377Y013075D01*
X016377Y012625D01*
X016838Y012700D02*
X016913Y012625D01*
X017063Y012625D01*
X017138Y012700D01*
X017138Y012775D01*
X017063Y012850D01*
X016913Y012850D01*
X016838Y012925D01*
X016838Y013000D01*
X016913Y013075D01*
X017063Y013075D01*
X017138Y013000D01*
X017138Y012925D01*
X017063Y012850D01*
X016913Y012850D02*
X016838Y012775D01*
X016838Y012700D01*
X018157Y011830D02*
X018157Y011530D01*
X018232Y011455D01*
X018382Y011455D01*
X018457Y011530D01*
X018457Y011830D01*
X018382Y011905D01*
X018232Y011905D01*
X018157Y011830D01*
X018307Y011605D02*
X018457Y011455D01*
X018617Y011680D02*
X018917Y011680D01*
X018842Y011455D02*
X018842Y011905D01*
X018617Y011680D01*
X019452Y010786D02*
X019452Y010485D01*
X019227Y010711D01*
X019677Y010711D01*
X019677Y010325D02*
X019527Y010175D01*
X019527Y010250D02*
X019527Y010025D01*
X019677Y010025D02*
X019227Y010025D01*
X019227Y010250D01*
X019302Y010325D01*
X019452Y010325D01*
X019527Y010250D01*
X019557Y023025D02*
X019407Y023175D01*
X019557Y023100D02*
X019482Y023025D01*
X019332Y023025D01*
X019257Y023100D01*
X019257Y023400D01*
X019332Y023475D01*
X019482Y023475D01*
X019557Y023400D01*
X019557Y023100D01*
X019717Y023100D02*
X019792Y023025D01*
X019942Y023025D01*
X020017Y023100D01*
X020017Y023175D01*
X019942Y023250D01*
X019867Y023250D01*
X019942Y023250D02*
X020017Y023325D01*
X020017Y023400D01*
X019942Y023475D01*
X019792Y023475D01*
X019717Y023400D01*
X020357Y023850D02*
X020515Y023850D01*
X020578Y024400D02*
X022227Y024400D01*
X022290Y023850D02*
X022448Y023850D01*
X022807Y023850D02*
X022965Y023850D01*
X023028Y024400D02*
X024677Y024400D01*
X024740Y023850D02*
X024898Y023850D01*
X025157Y023850D02*
X025315Y023850D01*
X025378Y024400D02*
X027027Y024400D01*
X027090Y023850D02*
X027248Y023850D01*
X026315Y023850D02*
X026090Y023850D01*
X027027Y024400D02*
X027062Y024352D01*
X027095Y024302D01*
X027126Y024250D01*
X027153Y024196D01*
X027177Y024141D01*
X027197Y024084D01*
X027215Y024027D01*
X027229Y023969D01*
X027240Y023910D01*
X027247Y023850D01*
X027251Y023788D01*
X027252Y023725D01*
X027248Y023663D01*
X027241Y023601D01*
X027231Y023540D01*
X027216Y023479D01*
X027198Y023419D01*
X027177Y023360D01*
X027152Y023303D01*
X027124Y023248D01*
X027093Y023194D01*
X027058Y023142D01*
X027020Y023092D01*
X026980Y023045D01*
X026936Y023000D01*
X026891Y022957D01*
X026842Y022918D01*
X026792Y022881D01*
X026739Y022848D01*
X026685Y022817D01*
X026628Y022790D01*
X026571Y022767D01*
X026512Y022747D01*
X025892Y022747D02*
X025832Y022767D01*
X025773Y022791D01*
X025716Y022819D01*
X025661Y022850D01*
X025607Y022885D01*
X025556Y022922D01*
X025507Y022963D01*
X025461Y023007D01*
X025417Y023053D01*
X025376Y023102D01*
X025338Y023153D01*
X025304Y023206D01*
X025272Y023262D01*
X025245Y023319D01*
X025220Y023378D01*
X025200Y023438D01*
X025182Y023499D01*
X025169Y023561D01*
X025160Y023624D01*
X025154Y023687D01*
X025152Y023751D01*
X025154Y023815D01*
X025160Y023878D01*
X025169Y023941D01*
X025183Y024003D01*
X025200Y024064D01*
X025221Y024124D01*
X025245Y024183D01*
X025273Y024240D01*
X025305Y024296D01*
X025340Y024349D01*
X025377Y024400D01*
X024667Y023475D02*
X024667Y023025D01*
X024517Y023025D02*
X024817Y023025D01*
X024517Y023325D02*
X024667Y023475D01*
X024357Y023400D02*
X024357Y023100D01*
X024282Y023025D01*
X024132Y023025D01*
X024057Y023100D01*
X024057Y023400D01*
X024132Y023475D01*
X024282Y023475D01*
X024357Y023400D01*
X024207Y023175D02*
X024357Y023025D01*
X024162Y022747D02*
X024221Y022767D01*
X024278Y022790D01*
X024335Y022817D01*
X024389Y022848D01*
X024442Y022881D01*
X024492Y022918D01*
X024541Y022957D01*
X024586Y023000D01*
X024630Y023045D01*
X024670Y023092D01*
X024708Y023142D01*
X024743Y023194D01*
X024774Y023248D01*
X024802Y023303D01*
X024827Y023360D01*
X024848Y023419D01*
X024866Y023479D01*
X024881Y023540D01*
X024891Y023601D01*
X024898Y023663D01*
X024902Y023725D01*
X024901Y023788D01*
X024897Y023850D01*
X023965Y023850D02*
X023740Y023850D01*
X024677Y024400D02*
X024712Y024352D01*
X024745Y024302D01*
X024776Y024250D01*
X024803Y024196D01*
X024827Y024141D01*
X024847Y024084D01*
X024865Y024027D01*
X024879Y023969D01*
X024890Y023910D01*
X024897Y023850D01*
X023542Y022747D02*
X023482Y022767D01*
X023423Y022791D01*
X023366Y022819D01*
X023311Y022850D01*
X023257Y022885D01*
X023206Y022922D01*
X023157Y022963D01*
X023111Y023007D01*
X023067Y023053D01*
X023026Y023102D01*
X022988Y023153D01*
X022954Y023206D01*
X022922Y023262D01*
X022895Y023319D01*
X022870Y023378D01*
X022850Y023438D01*
X022832Y023499D01*
X022819Y023561D01*
X022810Y023624D01*
X022804Y023687D01*
X022802Y023751D01*
X022804Y023815D01*
X022810Y023878D01*
X022819Y023941D01*
X022833Y024003D01*
X022850Y024064D01*
X022871Y024124D01*
X022895Y024183D01*
X022923Y024240D01*
X022955Y024296D01*
X022990Y024349D01*
X023027Y024400D01*
X022392Y023475D02*
X022242Y023475D01*
X022167Y023400D01*
X022007Y023400D02*
X022007Y023100D01*
X021932Y023025D01*
X021782Y023025D01*
X021707Y023100D01*
X021707Y023400D01*
X021782Y023475D01*
X021932Y023475D01*
X022007Y023400D01*
X021857Y023175D02*
X022007Y023025D01*
X022167Y023025D02*
X022467Y023325D01*
X022467Y023400D01*
X022392Y023475D01*
X022467Y023025D02*
X022167Y023025D01*
X021515Y023850D02*
X021290Y023850D01*
X022227Y024400D02*
X022262Y024352D01*
X022295Y024302D01*
X022326Y024250D01*
X022353Y024196D01*
X022377Y024141D01*
X022397Y024084D01*
X022415Y024027D01*
X022429Y023969D01*
X022440Y023910D01*
X022447Y023850D01*
X022451Y023788D01*
X022452Y023725D01*
X022448Y023663D01*
X022441Y023601D01*
X022431Y023540D01*
X022416Y023479D01*
X022398Y023419D01*
X022377Y023360D01*
X022352Y023303D01*
X022324Y023248D01*
X022293Y023194D01*
X022258Y023142D01*
X022220Y023092D01*
X022180Y023045D01*
X022136Y023000D01*
X022091Y022957D01*
X022042Y022918D01*
X021992Y022881D01*
X021939Y022848D01*
X021885Y022817D01*
X021828Y022790D01*
X021771Y022767D01*
X021712Y022747D01*
X021092Y022747D02*
X021032Y022767D01*
X020973Y022791D01*
X020916Y022819D01*
X020861Y022850D01*
X020807Y022885D01*
X020756Y022922D01*
X020707Y022963D01*
X020661Y023007D01*
X020617Y023053D01*
X020576Y023102D01*
X020538Y023153D01*
X020504Y023206D01*
X020472Y023262D01*
X020445Y023319D01*
X020420Y023378D01*
X020400Y023438D01*
X020382Y023499D01*
X020369Y023561D01*
X020360Y023624D01*
X020354Y023687D01*
X020352Y023751D01*
X020354Y023815D01*
X020360Y023878D01*
X020369Y023941D01*
X020383Y024003D01*
X020400Y024064D01*
X020421Y024124D01*
X020445Y024183D01*
X020473Y024240D01*
X020505Y024296D01*
X020540Y024349D01*
X020577Y024400D01*
X019877Y024404D02*
X019877Y024629D01*
X019802Y024704D01*
X019502Y024704D01*
X019427Y024629D01*
X019427Y024404D01*
X019877Y024404D01*
X019877Y024865D02*
X019577Y025165D01*
X019502Y025165D01*
X019427Y025090D01*
X019427Y024940D01*
X019502Y024865D01*
X019877Y024865D02*
X019877Y025165D01*
X019777Y028475D02*
X019327Y028475D01*
X019327Y028700D01*
X019402Y028775D01*
X019702Y028775D01*
X019777Y028700D01*
X019777Y028475D01*
X019702Y028935D02*
X019777Y029010D01*
X019777Y029161D01*
X019702Y029236D01*
X019627Y029236D01*
X019552Y029161D01*
X019552Y029086D01*
X019552Y029161D02*
X019477Y029236D01*
X019402Y029236D01*
X019327Y029161D01*
X019327Y029010D01*
X019402Y028935D01*
X019427Y029154D02*
X019427Y029379D01*
X019502Y029454D01*
X019802Y029454D01*
X019877Y029379D01*
X019877Y029154D01*
X019427Y029154D01*
X019577Y029615D02*
X019427Y029765D01*
X019877Y029765D01*
X019877Y029615D02*
X019877Y029915D01*
X029877Y029246D02*
X030327Y029246D01*
X030327Y029096D02*
X030327Y029396D01*
X030027Y029096D02*
X029877Y029246D01*
X029877Y028936D02*
X030177Y028936D01*
X030327Y028786D01*
X030177Y028635D01*
X029877Y028635D01*
X029952Y028475D02*
X029877Y028400D01*
X029877Y028250D01*
X029952Y028175D01*
X030027Y028175D01*
X030102Y028250D01*
X030102Y028400D01*
X030177Y028475D01*
X030252Y028475D01*
X030327Y028400D01*
X030327Y028250D01*
X030252Y028175D01*
X030777Y027825D02*
X031227Y027825D01*
X031227Y027675D02*
X031227Y027975D01*
X030927Y027675D02*
X030777Y027825D01*
D13*
X020242Y006850D03*
X020412Y004550D03*
X024492Y004550D03*
X024812Y005950D03*
X028892Y005950D03*
X016162Y006850D03*
D14*
X009417Y025646D02*
X008787Y025646D01*
X009102Y025751D02*
X009417Y026066D01*
X009417Y026290D02*
X008997Y026711D01*
X008892Y026711D01*
X008787Y026606D01*
X008787Y026396D01*
X008892Y026290D01*
X008787Y026066D02*
X009207Y025646D01*
X009417Y026290D02*
X009417Y026711D01*
X009417Y030196D02*
X008787Y030196D01*
X009102Y030301D02*
X009417Y030616D01*
X009417Y030840D02*
X009417Y031261D01*
X009417Y031051D02*
X008787Y031051D01*
X008997Y030840D01*
X008787Y030616D02*
X009207Y030196D01*
X029787Y028295D02*
X029787Y028085D01*
X029892Y027980D01*
X029787Y027755D02*
X030207Y027335D01*
X030102Y027440D02*
X030417Y027755D01*
X030312Y027980D02*
X030417Y028085D01*
X030417Y028295D01*
X030312Y028400D01*
X030207Y028400D01*
X030102Y028295D01*
X030102Y028190D01*
X030102Y028295D02*
X029997Y028400D01*
X029892Y028400D01*
X029787Y028295D01*
X029787Y027335D02*
X030417Y027335D01*
D15*
X021702Y029300D03*
X017502Y029450D03*
X017502Y024900D03*
D16*
X018752Y025050D03*
X020452Y028700D03*
X018752Y029800D03*
X027552Y018500D03*
X025152Y017800D03*
X024152Y014500D03*
X026202Y014500D03*
D17*
X026202Y015125D03*
X025152Y016075D03*
X024152Y015125D03*
X024152Y012775D03*
X026202Y012775D03*
X027552Y016775D03*
X027552Y019125D03*
X025152Y018425D03*
X018752Y023325D03*
X018752Y025675D03*
X018752Y028075D03*
X020452Y028075D03*
X020452Y030425D03*
X018752Y030425D03*
D18*
X020552Y013990D03*
X020552Y009910D03*
D19*
X018802Y008400D03*
X016602Y011950D03*
D20*
X015977Y011950D03*
X018327Y011950D03*
X019427Y008400D03*
X017077Y008400D03*
D21*
X021852Y008400D02*
X021852Y008100D01*
X022052Y008100D02*
X022052Y008400D01*
X022052Y008700D01*
X021852Y008700D02*
X021852Y008400D01*
X029202Y022650D02*
X029202Y024650D01*
X030952Y024650D01*
X030952Y022650D01*
X029202Y022650D01*
X030952Y022650D02*
X031702Y022650D01*
X031702Y024650D01*
X030952Y024650D01*
D22*
X018822Y011010D03*
D23*
X017052Y009700D03*
X013202Y007650D03*
D24*
X011477Y007400D03*
X014927Y007400D03*
X015327Y009950D03*
X018777Y009950D03*
D25*
X017552Y009950D03*
X016552Y009950D03*
X013702Y007400D03*
X012702Y007400D03*
D26*
X031972Y023933D02*
X032332Y024174D01*
X032332Y024302D02*
X032092Y024542D01*
X032032Y024542D01*
X031972Y024482D01*
X031972Y024362D01*
X032032Y024302D01*
X031972Y024174D02*
X032332Y023933D01*
X032332Y024302D02*
X032332Y024542D01*
M02*
